<?xml version="1.0" encoding="utf-8" ?>
<svg xmlns="http://www.w3.org/2000/svg" xmlns:xlink="http://www.w3.org/1999/xlink" width="1061" height="971">
	<rect fill="white" fill-opacity="0.031372551" transform="matrix(1.17406 0 0 1.17406 143.599 47.5931)" x="109" y="255" width="214" height="122"/>
	<rect fill="#333" transform="matrix(1.17406 0 0 1.17406 271.572 346.979)" x="-11" width="11" height="15"/>
	<clipPath id="cl_3">
		<rect x="258.65701" y="346.97879" width="12.914673" height="17.610931"/>
	</clipPath>
	<g clip-path="url(#cl_3)">
		<text fill="#DCDCDC" transform="matrix(1.17406 0 0 1.17406 258.657 346.979)" font-size="9.333334" font-family="Lucida Sans Unicode" x="2.4397783, 5.1285806, " y="9.9732285, ">
				If
		</text>
	</g>
	<rect fill="white" fill-opacity="0.031372551" transform="matrix(1.17406 0 0 1.17406 271.572 346.979)" y="-3" width="214" height="3"/>
	<rect fill="#828282" transform="matrix(1.17406 0 0 1.17406 271.572 343.457)" width="5" height="3"/>
	<rect fill="white" fill-opacity="0.031372551" transform="matrix(1.17406 0 0 1.17406 271.572 346.979)" y="122" width="214" height="3"/>
	<rect fill="white" fill-opacity="0.031372551" transform="matrix(1.17406 0 0 1.17406 143.599 47.5931)" x="408.5" y="238" width="80" height="80"/>
	<rect fill="#333" transform="matrix(1.17406 0 0 1.17406 623.203 327.02)" x="-11" width="11" height="15"/>
	<clipPath id="cl_4">
		<rect x="610.28845" y="327.01974" width="12.914673" height="17.610931"/>
	</clipPath>
	<g clip-path="url(#cl_4)">
		<text fill="#DCDCDC" transform="matrix(1.17406 0 0 1.17406 610.288 327.02)" font-size="9.333334" font-family="Lucida Sans Unicode" x="2.4397783, 5.1285806, " y="9.9732285, ">
				If
		</text>
	</g>
	<rect fill="white" fill-opacity="0.031372551" transform="matrix(1.17406 0 0 1.17406 623.203 327.02)" y="-3" width="80" height="3"/>
	<rect fill="#828282" transform="matrix(1.17406 0 0 1.17406 623.203 323.498)" width="5" height="3"/>
	<rect fill="white" fill-opacity="0.031372551" transform="matrix(1.17406 0 0 1.17406 623.203 327.02)" y="80" width="80" height="3"/>
	<path fill="#828282" transform="matrix(1.17406 0 0 1.17406 143.599 47.5931)" d="M53 34L53 37L52 37L52 34L53 34ZM53 38L53 38.5L52.5 38.5L52.7546 38.0697L54.9063 39.3425L54.3971 40.2032L52 38.7852L52 38L53 38ZM55.767 39.8516L58.349 41.3791L57.8399 42.2397L55.2578 40.7123L55.767 39.8516ZM59.2097 41.8882L61.7918 43.4156L61.2826 44.2763L58.7006 42.7489L59.2097 41.8882ZM62.6525 43.9247L65.2345 45.4522L64.7254 46.3128L62.1433 44.7854L62.6525 43.9247ZM66.0952 45.9613L68.6772 47.4887L68.1681 48.3494L65.5861 46.822L66.0952 45.9613ZM69.5379 47.9978L72.12 49.5253L71.6108 50.3859L69.0288 48.8585L69.5379 47.9978ZM72.9807 50.0344L75.5627 51.5618L75.0536 52.4225L72.4715 50.8951L72.9807 50.0344ZM76.4234 52.0709L79.0055 53.5984L78.4963 54.459L75.9143 52.9316L76.4234 52.0709ZM79.8661 54.1075L82.4482 55.6349L81.9391 56.4956L79.357 54.9682L79.8661 54.1075ZM83.3089 56.144L85.8909 57.6715L85.3818 58.5321L82.7998 57.0047L83.3089 56.144ZM86.7516 58.1806L89.3337 59.708L88.8245 60.5687L86.2425 59.0413L86.7516 58.1806ZM90.1944 60.2171L92.7764 61.7446L92.2673 62.6052L89.6852 61.0778L90.1944 60.2171ZM93.6371 62.2537L96.2192 63.7811L95.71 64.6418L93.128 63.1144L93.6371 62.2537ZM97.0799 64.2902L99.6619 65.8177L99.1528 66.6783L96.5707 65.1509L97.0799 64.2902ZM100.523 66.3268L103.105 67.8542L102.596 68.7149L100.013 67.1875L100.523 66.3268ZM103.965 68.3633L106.547 69.8908L106.038 70.7514L103.456 69.224L103.965 68.3633ZM107.408 70.3999L109.99 71.9273L109.481 72.788L106.899 71.2606L107.408 70.3999ZM110.851 72.4364L113.433 73.9639L112.924 74.8245L110.342 73.2971L110.851 72.4364ZM114.294 74.473L116.876 76.0004L116.366 76.8611L113.784 75.3337L114.294 74.473ZM117.736 76.5096L120.318 78.037L119.809 78.8976L117.227 77.3702L117.736 76.5096ZM121.179 78.5461L124 80.2148L124 80.5076L123 80.5076L123 80.5L123.5 80.5L123.245 80.9303L120.67 79.4068L121.179 78.5461ZM124 81.5076L124 84.5076L123 84.5076L123 81.5076L124 81.5076ZM124 85.5076L124 88.5076L123 88.5076L123 85.5076L124 85.5076ZM124 89.5076L124 92.5076L123 92.5076L123 89.5076L124 89.5076ZM124 93.5076L124 96.5076L123 96.5076L123 93.5076L124 93.5076ZM124 97.5076L124 100.508L123 100.508L123 97.5076L124 97.5076ZM124 101.508L124 104.508L123 104.508L123 101.508L124 101.508ZM124 105.508L124 108.508L123 108.508L123 105.508L124 105.508ZM124 109.508L124 112.508L123 112.508L123 109.508L124 109.508ZM124 113.508L124 116.508L123 116.508L123 113.508L124 113.508ZM124 117.508L124 120.508L123 120.508L123 117.508L124 117.508ZM124 121.508L124 124.508L123 124.508L123 121.508L124 121.508ZM124 125.508L124 128.508L123 128.508L123 125.508L124 125.508ZM124 129.508L124 132.508L123 132.508L123 129.508L124 129.508ZM124 133.508L124 136.508L123 136.508L123 133.508L124 133.508ZM124 137.508L124 140.508L123 140.508L123 137.508L124 137.508ZM124 141.508L124 144.508L123 144.508L123 141.508L124 141.508ZM124 145.508L124 148.508L123 148.508L123 145.508L124 145.508ZM124 149.508L124 152.508L123 152.508L123 149.508L124 149.508ZM124 153.508L124 156.508L123 156.508L123 153.508L124 153.508ZM124 157.508L124 160.508L123 160.508L123 157.508L124 157.508ZM124 161.508L124 164.508L123 164.508L123 161.508L124 161.508ZM124 165.508L124 168.508L123 168.508L123 165.508L124 165.508ZM124 169.508L124 172.508L123 172.508L123 169.508L124 169.508ZM124 173.508L124 176.508L123 176.508L123 173.508L124 173.508ZM124 177.508L124 180.508L123 180.508L123 177.508L124 177.508ZM124 181.508L124 184.508L123 184.508L123 181.508L124 181.508ZM124 185.508L124 188.508L123 188.508L123 185.508L124 185.508ZM124 189.508L124 192.508L123 192.508L123 189.508L124 189.508ZM124 193.508L124 196.508L123 196.508L123 193.508L124 193.508ZM124 197.508L124 200.508L123 200.508L123 197.508L124 197.508ZM124 201.508L124 204.508L123 204.508L123 201.508L124 201.508ZM124 205.508L124 208.508L123 208.508L123 205.508L124 205.508ZM124 209.508L124 212.508L123 212.508L123 209.508L124 209.508ZM124 213.508L124 216.508L123 216.508L123 213.508L124 213.508ZM124 217.508L124 220.508L123 220.508L123 217.508L124 217.508ZM124 221.508L124 224.508L123 224.508L123 221.508L124 221.508ZM124 225.508L124 228.508L123 228.508L123 225.508L124 225.508ZM124 229.508L124 232.508L123 232.508L123 229.508L124 229.508ZM124 233.508L124 236.508L123 236.508L123 233.508L124 233.508ZM124 237.508L124 240.508L123 240.508L123 237.508L124 237.508ZM124 241.508L124 244.508L123 244.508L123 241.508L124 241.508ZM124 245.508L124 248.508L123 248.508L123 245.508L124 245.508ZM124 249.508L124 252.508L123 252.508L123 249.508L124 249.508ZM124 253.508L124 256.508L123 256.508L123 253.508L124 253.508ZM124 257.508L124 260.508L123 260.508L123 257.508L124 257.508ZM124 261.508L124 264.508L123 264.508L123 261.508L124 261.508ZM124 265.508L124 268.508L123 268.508L123 265.508L124 265.508ZM124 269.508L124 272.508L123 272.508L123 269.508L124 269.508ZM124 273.508L124 276.508L123 276.508L123 273.508L124 273.508ZM124 277.508L124 278.5L124 280.508L123 280.508L123 278.5L123 277.508L124 277.508ZM124 281.508L124 283L123 283L123 281.508L124 281.508Z"/>
	<path fill="none" stroke="#FFB200" stroke-width="3" stroke-miterlimit="4" stroke-opacity="0.69803923" transform="matrix(1.17406 0 0 1.17406 143.599 47.5931)" d="M123.5 278.5L123.5 283L123.5 283"/>
	<path fill="#828282" transform="matrix(1.17406 0 0 1.17406 143.599 47.5931)" d="M53 34L53 37L52 37L52 34L53 34ZM53 38L53 38.5L53 41L52 41L52 38.5L52 38L53 38ZM53 42L53 45L52 45L52 42L53 42ZM53 46L53 49L52 49L52 46L53 46ZM53 50L53 53L52 53L52 50L53 50ZM53 54L53 57L52 57L52 54L53 54ZM53 58L53 61L52 61L52 58L53 58ZM53 62L53 65L52 65L52 62L53 62ZM53 66L53 69L52 69L52 66L53 66ZM53 70L53 73L52 73L52 70L53 70ZM53 74L53 77L52 77L52 74L53 74ZM53 78L53 81L52 81L52 78L53 78ZM53 82L53 85L52 85L52 82L53 82ZM53 86L53 89L52 89L52 86L53 86ZM53 90L53 93L52 93L52 90L53 90ZM53 94L53 97L52 97L52 94L53 94ZM53 98L53 101L52 101L52 98L53 98ZM53 102L53 105L52 105L52 102L53 102ZM53 106L53 109L52 109L52 106L53 106ZM53 110L53 113L52 113L52 110L53 110ZM53 114L53 117L52 117L52 114L53 114ZM53 118L53 121L52 121L52 118L53 118ZM53 122L53 125L52 125L52 122L53 122ZM53 126L53 129L52 129L52 126L53 126Z"/>
	<path fill="none" stroke="#FFB200" stroke-width="3" stroke-miterlimit="4" stroke-opacity="0.69803923" transform="matrix(1.17406 0 0 1.17406 143.599 47.5931)" d="M52.5 125.5L52.5 130L52.5 130"/>
	<path fill="none" stroke="#828282" stroke-width="1" stroke-miterlimit="4" transform="matrix(1.17406 0 0 1.17406 143.599 47.5931)" d="M20.5 105L20.5 109.5L20.5 155.5L20.5 160L20.5 160"/>
	<path fill="none" stroke="#828282" stroke-width="1" stroke-miterlimit="4" transform="matrix(1.17406 0 0 1.17406 143.599 47.5931)" d="M52.5 149L52.5 153.5L52.5 155.5L52.5 160L52.5 160"/>
	<path fill="none" stroke="#828282" stroke-width="1" stroke-miterlimit="4" transform="matrix(1.17406 0 0 1.17406 143.599 47.5931)" d="M20.5 179L20.5 183.5L111.5 247.5L111.5 252L111.5 252"/>
	<path fill="none" stroke="#828282" stroke-width="1" stroke-miterlimit="4" transform="matrix(1.17406 0 0 1.17406 143.599 47.5931)" d="M185.5 164L185.5 168.5L185.5 278.5L185.5 283L185.5 283"/>
	<path fill="none" stroke="#828282" stroke-width="1" stroke-miterlimit="4" transform="matrix(1.17406 0 0 1.17406 143.599 47.5931)" d="M20.5 179L20.5 183.5L20.5 190.5L20.5 195L20.5 195"/>
	<path fill="#828282" transform="matrix(1.17406 0 0 1.17406 143.599 47.5931)" d="M227 224L227 227L226 227L226 224L227 224ZM227 228L227 228.5L227 231L226 231L226 228.5L226 228L227 228ZM227 232L227 235L226 235L226 232L227 232ZM227 236L227 239L226 239L226 236L227 236ZM227 240L227 243L226 243L226 240L227 240ZM227 244L227 247L226 247L226 244L227 244ZM227 248L227 251L226 251L226 248L227 248ZM227 252L227 255L226 255L226 252L227 252ZM227 256L227 259L226 259L226 256L227 256ZM227 260L227 263L226 263L226 260L227 260ZM227 264L227 267L226 267L226 264L227 264ZM227 268L227 271L226 271L226 268L227 268ZM227 272L227 275L226 275L226 272L227 272ZM227 276L227 278.5L227 279L226 279L226 278.5L226 276L227 276ZM227 280L227 283L226 283L226 280L227 280Z"/>
	<path fill="#828282" transform="matrix(1.17406 0 0 1.17406 143.599 47.5931)" d="M206 194L206 197L205 197L205 194L206 194ZM206 198L206 198.5L206 201L205 201L205 198.5L205 198L206 198ZM206 202L206 205L205 205L205 202L206 202ZM206 206L206 209L205 209L205 206L206 206ZM206 210L206 213L205 213L205 210L206 210ZM206 214L206 217L205 217L205 214L206 214ZM206 218L206 221L205 221L205 218L206 218ZM206 222L206 225L205 225L205 222L206 222ZM206 226L206 229L205 229L205 226L206 226ZM206 230L206 233L205 233L205 230L206 230ZM206 234L206 237L205 237L205 234L206 234ZM206 238L206 241L205 241L205 238L206 238ZM206 242L206 245L205 245L205 242L206 242ZM206 246L206 249L205 249L205 246L206 246ZM206 250L206 253L205 253L205 250L206 250ZM206 254L206 257L205 257L205 254L206 254ZM206 258L206 261L205 261L205 258L206 258ZM206 262L206 265L205 265L205 262L206 262ZM206 266L206 269L205 269L205 266L206 266ZM206 270L206 273L205 273L205 270L206 270ZM206 274L206 277L205 277L205 274L206 274ZM206 278L206 278.5L206 281L205 281L205 278.5L205 278L206 278ZM206 282L206 283L205 283L205 282L206 282Z"/>
	<path fill="none" stroke="#828282" stroke-width="1" stroke-miterlimit="4" transform="matrix(1.17406 0 0 1.17406 143.599 47.5931)" d="M164.5 144L164.5 148.5L164.5 278.5L164.5 283L164.5 283"/>
	<path fill="none" stroke="#828282" stroke-width="1" stroke-miterlimit="4" transform="matrix(1.17406 0 0 1.17406 143.599 47.5931)" d="M144.5 124L144.5 128.5L144.5 278.5L144.5 283L144.5 283"/>
	<path fill="#828282" transform="matrix(1.17406 0 0 1.17406 143.599 47.5931)" d="M227 309L227 312L226 312L226 309L227 309ZM227 313L227 313.5L227 316L226 316L226 313.5L226 313L227 313ZM227 317L227 320L226 320L226 317L227 317ZM227 321L227 324L226 324L226 321L227 321ZM227 325L227 328L226 328L226 325L227 325ZM227 329L227 332L226 332L226 329L227 329ZM227 333L227 336L226 336L226 333L227 333ZM227 337L227 340L226 340L226 337L227 337ZM227 341L227 344L226 344L226 341L227 341ZM227 345L227 348L226 348L226 345L227 345ZM227 349L227 352L226 352L226 349L227 349ZM227 353L227 356L226 356L226 353L227 353ZM227 357L227 360L226 360L226 357L227 357ZM227 361L227 361.5L227 364L226 364L226 361.5L226 361L227 361ZM227 365L227 366L226 366L226 365L227 365Z"/>
	<path fill="#828282" transform="matrix(1.17406 0 0 1.17406 143.599 47.5931)" d="M227 375L227 378L226 378L226 375L227 375ZM227 379L227 379.5L227 382L226 382L226 379.5L226 379L227 379ZM227 383L227 386L226 386L226 383L227 383ZM227 387L227 390L226 390L226 387L227 387ZM227 391L227 391.5L227 394L226 394L226 391.5L226 391L227 391ZM227 395L227 396L226 396L226 395L227 395Z"/>
	<path fill="#828282" transform="matrix(1.17406 0 0 1.17406 143.599 47.5931)" d="M307 244L307 247L306 247L306 244L307 244ZM307 248L307 248.5L307 251L306 251L306 248.5L306 248L307 248ZM307 252L307 255L306 255L306 252L307 252Z"/>
	<path fill="#828282" transform="matrix(1.17406 0 0 1.17406 143.599 47.5931)" d="M227 405L227 408L226 408L226 405L227 405ZM227 409L227 409.5L227 412L226 412L226 409.5L226 409L227 409ZM227 413L227 416L226 416L226 413L227 413ZM227 417L227 420L226 420L226 417L227 417ZM227 421L227 424L226 424L226 421L227 421ZM227 425L227 428L226 428L226 425L227 425ZM227 429L227 432L226 432L226 429L227 429ZM227 433L227 436L226 436L226 433L227 433ZM227 437L227 440L226 440L226 437L227 437ZM227 441L227 444L226 444L226 441L227 441ZM227 445L227 448L226 448L226 445L227 445ZM227 449L227 452L226 452L226 449L227 449ZM227 453L227 456L226 456L226 453L227 453ZM227 457L227 460L226 460L226 457L227 457ZM227 461L227 464L226 464L226 461L227 461ZM227 465L227 468L226 468L226 465L227 465ZM227 469L227 470.5L227 472L226 472L226 470.5L226 469L227 469ZM227 473L227 475L226 475L226 473L227 473Z"/>
	<path fill="none" stroke="#FFB200" stroke-width="3" stroke-miterlimit="4" stroke-opacity="0.69803923" transform="matrix(1.17406 0 0 1.17406 143.599 47.5931)" d="M226.5 470.5L226.5 475L226.5 475"/>
	<path fill="#828282" transform="matrix(1.17406 0 0 1.17406 143.599 47.5931)" d="M227 405L227 408L226 408L226 405L227 405ZM227 409L227 412L226 412L226 409L227 409ZM227.197 412.622L228.921 415.076L228.103 415.651L226.378 413.197L227.197 412.622ZM229.496 415.894L231.221 418.349L230.403 418.924L228.678 416.469L229.496 415.894ZM231.796 419.167L233.521 421.622L232.703 422.197L230.978 419.742L231.796 419.167ZM234.096 422.44L235.821 424.895L235.003 425.469L233.278 423.015L234.096 422.44ZM236.396 425.713L238.121 428.167L237.302 428.742L235.577 426.288L236.396 425.713ZM238.695 428.985L240.42 431.44L239.602 432.015L237.877 429.56L238.695 428.985ZM240.995 432.258L242.72 434.713L241.902 435.288L240.177 432.833L240.995 432.258ZM243.295 435.531L245.02 437.986L244.202 438.561L242.477 436.106L243.295 435.531ZM245.595 438.804L247.32 441.258L246.501 441.833L244.777 439.379L245.595 438.804ZM247.895 442.077L249.619 444.531L248.801 445.106L247.076 442.651L247.895 442.077ZM250.194 445.349L251.919 447.804L251.101 448.379L249.376 445.924L250.194 445.349ZM252.494 448.622L254.219 451.077L253.401 451.652L251.676 449.197L252.494 448.622ZM254.794 451.895L256.519 454.349L255.701 454.924L253.976 452.47L254.794 451.895ZM257.094 455.168L258.819 457.622L258 458.197L256.276 455.743L257.094 455.168ZM259.394 458.44L261.118 460.895L260.3 461.47L258.575 459.015L259.394 458.44ZM261.693 461.713L263.418 464.168L262.6 464.743L260.875 462.288L261.693 461.713ZM263.993 464.986L265.718 467.44L264.9 468.015L263.175 465.561L263.993 464.986ZM266.293 468.259L268.018 470.713L267.2 471.288L265.475 468.834L266.293 468.259ZM268.593 471.531L270.317 473.986L269.499 474.561L267.774 472.106L268.593 471.531ZM270.892 474.804L272.617 477.259L271.799 477.834L270.074 475.379L270.892 474.804ZM273.192 478.077L274.917 480.532L274.099 481.106L272.374 478.652L273.192 478.077ZM275.492 481.35L277.217 483.804L276.399 484.379L274.674 481.925L275.492 481.35ZM277.792 484.622L279 486.342L279 487.557L278 487.557L278 486.5L278.5 486.5L278.091 486.787L276.974 485.197L277.792 484.622ZM279 488.557L279 491L278 491L278 488.557L279 488.557Z"/>
	<path fill="none" stroke="#FFB200" stroke-width="3" stroke-miterlimit="4" stroke-opacity="0.69803923" transform="matrix(1.17406 0 0 1.17406 143.599 47.5931)" d="M278.5 486.5L278.5 491L278.5 491"/>
	<path fill="none" stroke="#828282" stroke-width="1" stroke-miterlimit="4" transform="matrix(1.17406 0 0 1.17406 143.599 47.5931)" d="M278.5 510L278.5 514.5L278.5 525.5L278.5 530L278.5 530"/>
	<path fill="#828282" transform="matrix(1.17406 0 0 1.17406 143.599 47.5931)" d="M53 34L53 37L52 37L52 34L53 34ZM53 38L53 41L52 41L52 38L53 38ZM53.1852 41.3256L55.7643 42.858L55.2535 43.7177L52.6744 42.1852L53.1852 41.3256ZM56.624 43.3688L59.2031 44.9012L58.6923 45.7609L56.1132 44.2285L56.624 43.3688ZM60.0628 45.412L62.6419 46.9444L62.1311 47.8041L59.552 46.2717L60.0628 45.412ZM63.5016 47.4552L66.0807 48.9876L65.5699 49.8473L62.9908 48.3149L63.5016 47.4552ZM66.9404 49.4984L69.5195 51.0308L69.0087 51.8905L66.4296 50.3581L66.9404 49.4984ZM70.3792 51.5416L72.9583 53.074L72.4475 53.9337L69.8684 52.4013L70.3792 51.5416ZM73.818 53.5848L76.3971 55.1172L75.8863 55.9769L73.3072 54.4445L73.818 53.5848ZM77.2568 55.628L79.8359 57.1604L79.3251 58.0201L76.746 56.4877L77.2568 55.628ZM80.6956 57.6712L83.2747 59.2036L82.7639 60.0633L80.1848 58.5309L80.6956 57.6712ZM84.1344 59.7144L86.7135 61.2468L86.2027 62.1065L83.6236 60.5741L84.1344 59.7144ZM87.5732 61.7576L90.1523 63.29L89.6415 64.1497L87.0624 62.6173L87.5732 61.7576ZM91.012 63.8008L93.5911 65.3333L93.0803 66.1929L90.5012 64.6605L91.012 63.8008ZM94.4508 65.8441L97.0299 67.3765L96.5191 68.2362L93.94 66.7038L94.4508 65.8441ZM97.8896 67.8873L100.469 69.4197L99.9579 70.2794L97.3788 68.747L97.8896 67.8873ZM101.328 69.9305L103.907 71.4629L103.397 72.3226L100.818 70.7902L101.328 69.9305ZM104.767 71.9737L107.346 73.5061L106.835 74.3658L104.256 72.8334L104.767 71.9737ZM108.206 74.0169L110.785 75.5493L110.274 76.409L107.695 74.8766L108.206 74.0169ZM111.645 76.0601L114.224 77.5925L113.713 78.4522L111.134 76.9198L111.645 76.0601ZM115.084 78.1033L117.663 79.6357L117.152 80.4954L114.573 78.963L115.084 78.1033ZM118.522 80.1465L121.101 81.6789L120.591 82.5386L118.012 81.0062L118.522 80.1465ZM121.961 82.1897L124.54 83.7221L124.029 84.5818L121.45 83.0494L121.961 82.1897ZM125.4 84.2329L127.979 85.7653L127.468 86.625L124.889 85.0926L125.4 84.2329ZM128.839 86.2761L131.418 87.8086L130.907 88.6683L128.328 87.1358L128.839 86.2761ZM132.277 88.3194L134.857 89.8518L134.346 90.7115L131.767 89.179L132.277 88.3194ZM135.716 90.3626L138.295 91.895L137.785 92.7547L135.205 91.2223L135.716 90.3626ZM139.155 92.4058L141.734 93.9382L141.223 94.7979L138.644 93.2655L139.155 92.4058ZM142.594 94.449L145.173 95.9814L144.662 96.8411L142.083 95.3087L142.594 94.449ZM146.033 96.4922L148.612 98.0246L148.101 98.8843L145.522 97.3519L146.033 96.4922ZM149.471 98.5354L152.051 100.068L151.54 100.927L148.961 99.3951L149.471 98.5354ZM152.91 100.579L155.489 102.111L154.979 102.971L152.399 101.438L152.91 100.579ZM156.349 102.622L158.928 104.154L158.417 105.014L155.838 103.482L156.349 102.622ZM159.788 104.665L162.367 106.197L161.856 107.057L159.277 105.525L159.788 104.665ZM163.227 106.708L165.806 108.241L165.295 109.1L162.716 107.568L163.227 106.708ZM166.665 108.751L169.245 110.284L168.734 111.144L166.155 109.611L166.665 108.751ZM170.104 110.795L172.683 112.327L172.173 113.187L169.593 111.654L170.104 110.795ZM173.543 112.838L176.122 114.37L175.611 115.23L173.032 113.698L173.543 112.838ZM176.982 114.881L179.561 116.413L179.05 117.273L176.471 115.741L176.982 114.881ZM180.421 116.924L183 118.457L182.489 119.316L179.91 117.784L180.421 116.924ZM183.859 118.967L186.438 120.5L185.928 121.36L183.349 119.827L183.859 118.967ZM187.298 121.011L189.877 122.543L189.366 123.403L186.787 121.87L187.298 121.011ZM190.737 123.054L193.316 124.586L192.805 125.446L190.226 123.914L190.737 123.054ZM194.176 125.097L196.755 126.63L196.244 127.489L193.665 125.957L194.176 125.097ZM197.615 127.14L200.194 128.673L199.683 129.532L197.104 128L197.615 127.14ZM201.053 129.184L203.632 130.716L203.122 131.576L200.543 130.043L201.053 129.184ZM204.492 131.227L207.071 132.759L206.56 133.619L203.981 132.086L204.492 131.227ZM207.931 133.27L210.51 134.802L209.999 135.662L207.42 134.13L207.931 133.27ZM211.37 135.313L213.949 136.846L213.438 137.705L210.859 136.173L211.37 135.313ZM214.809 137.356L217.388 138.889L216.877 139.748L214.298 138.216L214.809 137.356ZM218.247 139.4L220.826 140.932L220.316 141.792L217.737 140.259L218.247 139.4ZM221.686 141.443L224.265 142.975L223.754 143.835L221.175 142.302L221.686 141.443ZM225.125 143.486L227.704 145.018L227.193 145.878L224.614 144.346L225.125 143.486ZM228.564 145.529L231.143 147.062L230.632 147.921L228.053 146.389L228.564 145.529ZM232.002 147.572L234.582 149.105L234.071 149.965L231.492 148.432L232.002 147.572ZM235.441 149.616L238.02 151.148L237.51 152.008L234.93 150.475L235.441 149.616ZM238.88 151.659L241.459 153.191L240.948 154.051L238.369 152.519L238.88 151.659ZM242.319 153.702L244.898 155.234L244.387 156.094L241.808 154.562L242.319 153.702ZM245.758 155.745L248.337 157.278L247.826 158.137L245.247 156.605L245.758 155.745ZM249.196 157.788L251.776 159.321L251.265 160.181L248.686 158.648L249.196 157.788ZM252.635 159.832L255.214 161.364L254.704 162.224L252.124 160.691L252.635 159.832ZM256.074 161.875L258.653 163.407L258.142 164.267L255.563 162.735L256.074 161.875ZM259.513 163.918L262.092 165.45L261.581 166.31L259.002 164.778L259.513 163.918ZM262.952 165.961L265.531 167.494L265.02 168.353L262.441 166.821L262.952 165.961ZM266.39 168.004L268.97 169.537L268.459 170.397L265.88 168.864L266.39 168.004ZM269.829 170.048L272.408 171.58L271.898 172.44L269.318 170.907L269.829 170.048ZM273.268 172.091L275.847 173.623L275.336 174.483L272.757 172.951L273.268 172.091ZM276.707 174.134L279.286 175.667L278.775 176.526L276.196 174.994L276.707 174.134ZM280.146 176.177L282.725 177.71L282.214 178.569L279.635 177.037L280.146 176.177ZM283.584 178.221L286.163 179.753L285.653 180.613L283.074 179.08L283.584 178.221ZM287.023 180.264L289.602 181.796L289.091 182.656L286.512 181.123L287.023 180.264ZM290.462 182.307L293.041 183.839L292.53 184.699L289.951 183.167L290.462 182.307ZM293.901 184.35L296.48 185.883L295.969 186.742L293.39 185.21L293.901 184.35ZM297.34 186.393L299.919 187.926L299.408 188.785L296.829 187.253L297.34 186.393ZM300.778 188.437L303.357 189.969L302.847 190.829L300.268 189.296L300.778 188.437ZM304.217 190.48L306.796 192.012L306.285 192.872L303.706 191.339L304.217 190.48ZM307.656 192.523L310.235 194.055L309.724 194.915L307.145 193.383L307.656 192.523ZM311.095 194.566L313.674 196.099L313.163 196.958L310.584 195.426L311.095 194.566ZM314.534 196.609L317.113 198.142L316.602 199.002L314.023 197.469L314.534 196.609ZM317.972 198.653L320.551 200.185L320.041 201.045L317.462 199.512L317.972 198.653ZM321.411 200.696L323.99 202.228L323.479 203.088L320.9 201.556L321.411 200.696ZM324.85 202.739L327.429 204.271L326.918 205.131L324.339 203.599L324.85 202.739ZM328.289 204.782L330.868 206.315L330.357 207.174L327.778 205.642L328.289 204.782ZM331.728 206.825L334.307 208.358L333.796 209.218L331.217 207.685L331.728 206.825ZM335.166 208.869L337.745 210.401L337.235 211.261L334.655 209.728L335.166 208.869ZM338.605 210.912L341.184 212.444L340.673 213.304L338.094 211.772L338.605 210.912ZM342.044 212.955L344.623 214.487L344.112 215.347L341.533 213.815L342.044 212.955ZM345.483 214.998L348.062 216.531L347.551 217.39L344.972 215.858L345.483 214.998ZM348.921 217.041L351.501 218.574L350.99 219.434L348.411 217.901L348.921 217.041ZM352.36 219.085L354.939 220.617L354.429 221.477L351.849 219.944L352.36 219.085ZM355.799 221.128L358.378 222.66L357.867 223.52L355.288 221.988L355.799 221.128ZM359.238 223.171L361.817 224.704L361.306 225.563L358.727 224.031L359.238 223.171ZM362.677 225.214L365.256 226.747L364.745 227.606L362.166 226.074L362.677 225.214ZM366.115 227.258L368.695 228.79L368.184 229.65L365.605 228.117L366.115 227.258ZM369.554 229.301L372.133 230.833L371.623 231.693L369.043 230.16L369.554 229.301ZM372.993 231.344L375.572 232.876L375.061 233.736L372.482 232.204L372.993 231.344ZM376.432 233.387L379.011 234.92L378.5 235.779L375.921 234.247L376.432 233.387ZM379.871 235.43L382.45 236.963L381.939 237.822L379.36 236.29L379.871 235.43ZM383.309 237.474L385.888 239.006L385.378 239.866L382.799 238.333L383.309 237.474ZM386.748 239.517L389.327 241.049L388.816 241.909L386.237 240.376L386.748 239.517ZM390.187 241.56L392.766 243.092L392.255 243.952L389.676 242.42L390.187 241.56ZM393.626 243.603L396.205 245.136L395.694 245.995L393.115 244.463L393.626 243.603ZM397.065 245.646L399.644 247.179L399.133 248.039L396.554 246.506L397.065 245.646ZM400.503 247.69L403.082 249.222L402.572 250.082L399.993 248.549L400.503 247.69ZM403.942 249.733L406.521 251.265L406.01 252.125L403.431 250.593L403.942 249.733ZM407.381 251.776L409.96 253.308L409.449 254.168L406.87 252.636L407.381 251.776ZM410.82 253.819L413.399 255.352L412.888 256.211L410.309 254.679L410.82 253.819ZM414.259 255.862L416.838 257.395L416.327 258.255L413.748 256.722L414.259 255.862ZM417.697 257.906L420.276 259.438L419.766 260.298L417.187 258.765L417.697 257.906ZM421.136 259.949L423.715 261.481L423.204 262.341L420.625 260.809L421.136 259.949ZM424.575 261.992L427.154 263.525L426.643 264.384L424.064 262.852L424.575 261.992ZM428.014 264.035L430 265.215L430 266.474L429 266.474L429 265.5L429.5 265.5L429.245 265.93L427.503 264.895L428.014 264.035ZM430 267.474L430 270L429 270L429 267.474L430 267.474Z"/>
	<path fill="none" stroke="#FFB200" stroke-width="3" stroke-miterlimit="4" stroke-opacity="0.69803923" transform="matrix(1.17406 0 0 1.17406 143.599 47.5931)" d="M429.5 265.5L429.5 270L429.5 270"/>
	<path fill="none" stroke="#828282" stroke-width="1" stroke-miterlimit="4" transform="matrix(1.17406 0 0 1.17406 143.599 47.5931)" d="M411.5 204L411.5 208.5L411 230.5L411 235L411 235"/>
	<rect fill="#828282" transform="matrix(1.17406 0 0 1.17406 143.599 47.5931)" x="48" y="25" width="9" height="9"/>
	<clipPath id="cl_5">
		<rect x="216.39079" y="73.422455" width="31.699661" height="17.610924"/>
	</clipPath>
	<g clip-path="url(#cl_5)">
		<text fill="#DCDCDC" transform="matrix(1.17406 0 0 1.17406 212.869 73.4225)" font-size="9.333334" font-family="Lucida Sans Unicode" x="3, 9.4576826, 12.1556, 14.853517, 20.053387, 25.845705, " y="9.9732285, ">
				Client
		</text>
	</g>
	<rect fill="#828282" transform="matrix(1.17406 0 0 1.17406 143.599 47.5931)" x="16" y="96" width="9" height="9"/>
	<clipPath id="cl_6">
		<rect x="178.82083" y="156.78082" width="25.829346" height="17.610931"/>
	</clipPath>
	<g clip-path="url(#cl_6)">
		<text fill="#DCDCDC" transform="matrix(1.17406 0 0 1.17406 175.299 156.781)" font-size="9.333334" font-family="Lucida Sans Unicode" x="3, 8.0266933, 13.226563, 19.018881, " y="9.9732285, ">
				Send
		</text>
	</g>
	<ellipse fill="white" transform="matrix(1.17406 0 0 1.17406 167.667 165.586)" cx="0" cy="0" rx="2" ry="2"/>
	<ellipse fill="none" stroke="black" stroke-width="0.5" stroke-miterlimit="4" transform="matrix(1.17406 0 0 1.17406 167.667 165.586)" cx="0" cy="0" rx="2" ry="2"/>
	<rect fill="#828282" transform="matrix(1.17406 0 0 1.17406 143.599 47.5931)" x="181" y="155" width="9" height="9"/>
	<clipPath id="cl_7">
		<rect x="372.54099" y="226.05046" width="49.310577" height="17.610916"/>
	</clipPath>
	<g clip-path="url(#cl_7)">
		<text fill="#DCDCDC" transform="matrix(1.17406 0 0 1.17406 369.019 226.05)" font-size="9.333334" font-family="Lucida Sans Unicode" x="3, 9.9908857, 15.145184, 18.63607, 23.790367, 29.664717, 34.819016, 39.576828, " y="9.9732285, ">
				Database
		</text>
	</g>
	<ellipse transform="matrix(1.17406 0 0 1.17406 143.599 47.5931)" cx="123.5" cy="80.5" rx="2" ry="2"/>
	<rect fill="#828282" transform="matrix(1.17406 0 0 1.17406 143.599 47.5931)" x="222" y="215" width="9" height="9"/>
	<clipPath id="cl_8">
		<rect x="420.67752" y="296.49417" width="43.440277" height="17.610931"/>
	</clipPath>
	<g clip-path="url(#cl_8)">
		<text fill="#DCDCDC" transform="matrix(1.17406 0 0 1.17406 417.155 296.494)" font-size="9.333334" font-family="Lucida Sans Unicode" x="3, 9.8587246, 15.058595, 20.212893, 26.087242, 31.287113, 35.106125, " y="9.9732285, ">
				Headers
		</text>
	</g>
	<rect fill="#828282" transform="matrix(1.17406 0 0 1.17406 143.599 47.5931)" x="201" y="185" width="9" height="9"/>
	<clipPath id="cl_9">
		<rect x="396.02225" y="261.27231" width="100.9693" height="17.610931"/>
	</clipPath>
	<g clip-path="url(#cl_9)">
		<text fill="#DCDCDC" transform="matrix(1.17406 0 0 1.17406 392.5 261.272)" font-size="9.333334" font-family="Lucida Sans Unicode" x="3, 9.8951826, 15.04948, 23.763023, 28.962894, 34.837242, 37.790371, 42.949226, 48.103523, 51.922535, 57.076832, 65.790375, 70.990242, 74.481125, 79.680992, 83.5, " y="9.9732285, ">
				Named Parameters
		</text>
	</g>
	<rect fill="#828282" transform="matrix(1.17406 0 0 1.17406 143.599 47.5931)" x="160" y="135" width="9" height="9"/>
	<clipPath id="cl_a">
		<rect x="347.88571" y="202.56923" width="61.051208" height="17.610916"/>
	</clipPath>
	<g clip-path="url(#cl_a)">
		<text fill="#DCDCDC" transform="matrix(1.17406 0 0 1.17406 344.364 202.569)" font-size="9.333334" font-family="Lucida Sans Unicode" x="3, 10.250651, 16.042969, 21.24284, 25.061852, 29.938154, 32.891281, 38.792973, 43.669273, 49.543625, " y="9.9732285, ">
				Query Type
		</text>
	</g>
	<rect fill="#828282" transform="matrix(1.17406 0 0 1.17406 143.599 47.5931)" x="140" y="115" width="9" height="9"/>
	<clipPath id="cl_b">
		<rect x="324.40445" y="179.088" width="31.699677" height="17.610916"/>
	</clipPath>
	<g clip-path="url(#cl_b)">
		<text fill="#DCDCDC" transform="matrix(1.17406 0 0 1.17406 320.882 179.088)" font-size="9.333334" font-family="Lucida Sans Unicode" x="3, 10.250651, 16.042969, 21.24284, 25.061852, " y="9.9732285, ">
				Query
		</text>
	</g>
	<ellipse fill="#7F7F7F" transform="matrix(1.17406 0 0 1.17406 143.599 47.5931)" cx="20.5" cy="199.5" rx="4.5" ry="4.5"/>
	<rect fill="#333" transform="matrix(1.17406 0 0 1.17406 167.667 281.818)" x="6.5" y="-7" width="35" height="35"/>
	<rect fill="none" stroke="#7F7F7F" stroke-width="1" stroke-miterlimit="4" transform="matrix(1.17406 0 0 1.17406 175.299 273.6)" x="8.25" y="8.25" width="18.5" height="18.5"/>
	<ellipse fill="#7F7F7F" transform="matrix(1.17406 0 0 1.17406 143.599 47.5931)" cx="226.5" cy="400.5" rx="4.5" ry="4.5"/>
	<clipPath id="cl_c">
		<rect x="365.49661" y="508.9993" width="32.873718" height="17.610931"/>
	</clipPath>
	<g clip-path="url(#cl_c)">
		<text fill="#DCDCDC" transform="matrix(1.17406 0 0 1.17406 361.974 508.999)" font-size="9.333334" font-family="Lucida Sans Unicode" x="3, 8.9016933, 14.101563, 18.859377, 24.651695, 27.349611, " y="9.9732285, ">
				Result
		</text>
	</g>
	<ellipse fill="#7F7F7F" transform="matrix(1.17406 0 0 1.17406 143.599 47.5931)" cx="306.5" cy="239.5" rx="4.5" ry="4.5"/>
	<ellipse fill="none" stroke="#FFB200" stroke-width="2" stroke-miterlimit="4" stroke-opacity="0.69803923" transform="matrix(1.17406 0 0 1.17406 143.599 47.5931)" cx="306.5" cy="239.5" rx="4.5" ry="4.5"/>
	<clipPath id="cl_d">
		<rect x="459.42154" y="319.9754" width="32.873718" height="17.610931"/>
	</clipPath>
	<g clip-path="url(#cl_d)">
		<text fill="#DCDCDC" transform="matrix(1.17406 0 0 1.17406 455.899 319.975)" font-size="9.333334" font-family="Lucida Sans Unicode" x="3, 8.9016933, 14.101563, 18.859377, 24.651695, 27.349611, " y="9.9732285, ">
				Result
		</text>
	</g>
	<rect fill="#333" transform="matrix(1.17406 0 0 1.17406 143.599 47.5931)" x="50" y="130" width="65" height="19"/>
	<text fill="#DCDCDC" transform="matrix(1.17406 0 0 1.17406 202.302 200.221)" font-size="9.333334" font-family="Lucida Sans Unicode" x="8, 10.688803, 15.446615, 21.886068, 26.643881, 31.401693, 34.099609, 39.919273, 45.71159, 50.911461, " y="11.973228, ">
			IsAssigned
	</text>
	<rect fill="#828282" transform="matrix(1.17406 0 0 1.17406 202.302 219.006)" x="60" width="5" height="3"/>
	<rect fill="#828282" transform="matrix(1.17406 0 0 1.17406 202.302 219.006)" width="5" height="3"/>
	<rect fill="#828282" transform="matrix(1.17406 0 0 1.17406 202.302 200.221)" width="5" height="3"/>
	<rect fill="#333" transform="matrix(1.17406 0 0 1.17406 143.599 47.5931)" x="18" y="160" width="37" height="19"/>
	<text fill="#DCDCDC" transform="matrix(1.17406 0 0 1.17406 164.732 235.443)" font-size="9.333334" font-family="Lucida Sans Unicode" x="8, 14.439453, 21.334637, " y="11.973228, ">
			AND
	</text>
	<rect fill="#828282" transform="matrix(1.17406 0 0 1.17406 164.732 254.228)" width="5" height="3"/>
	<rect fill="#828282" transform="matrix(1.17406 0 0 1.17406 164.732 235.443)" x="32" width="5" height="3"/>
	<rect fill="#828282" transform="matrix(1.17406 0 0 1.17406 164.732 235.443)" width="5" height="3"/>
	<path fill="#7F7F7F" transform="matrix(1.17406 0 0 1.17406 143.599 47.5931)" d="M226.5 366L231 370.5L226.5 375L222 370.5L226.5 366Z"/>
	<path fill="#7F7F7F" transform="matrix(1.17406 0 0 1.17406 143.599 47.5931)" d="M306.5 256L311 260.5L306.5 265L302 260.5L306.5 256Z"/>
	<rect fill="#333" transform="matrix(1.17406 0 0 1.17406 143.599 47.5931)" x="121" y="283" width="108" height="26"/>
	<text fill="#DCDCDC" transform="matrix(1.17406 0 0 1.17406 285.66 379.853)" font-size="9.333334" font-family="Lucida Sans Unicode" x="8, 15.250651, 21.042969, 26.24284, 30.061852, " y="11.973228, ">
			Query
	</text>
	<text fill="#999" transform="matrix(1.17406 0 0 1.17406 285.66 379.853)" font-size="7.3333335" font-family="Lucida Sans Unicode" x="8, 10.112631, 12.225261, 16.776367, 19.472656, 21.592449, 26.143555, 30.640951, 36.133789, 40.351887, 45.425781, 47.545574, 49.665367, 53.75098, 58.302086, " y="20.942955, ">
			IInfluxDBClient
	</text>
	<rect fill="#828282" transform="matrix(1.17406 0 0 1.17406 285.66 406.856)" x="103" width="5" height="3"/>
	<rect fill="#828282" transform="matrix(1.17406 0 0 1.17406 285.66 406.856)" width="5" height="3"/>
	<rect fill="#828282" transform="matrix(1.17406 0 0 1.17406 285.66 379.853)" x="103" width="5" height="3"/>
	<rect fill="#828282" transform="matrix(1.17406 0 0 1.17406 285.66 379.853)" x="82" width="5" height="3"/>
	<rect fill="#828282" transform="matrix(1.17406 0 0 1.17406 285.66 379.853)" x="62" width="5" height="3"/>
	<rect fill="#828282" transform="matrix(1.17406 0 0 1.17406 285.66 379.853)" x="41" width="5" height="3"/>
	<rect fill="#828282" transform="matrix(1.17406 0 0 1.17406 285.66 379.853)" x="21" width="5" height="3"/>
	<rect fill="#828282" transform="matrix(1.17406 0 0 1.17406 285.66 379.853)" width="5" height="3"/>
	<rect fill="#828282" transform="matrix(1.17406 0 0 1.17406 285.66 379.853)" x="2" width="1" height="26"/>
	<rect fill="#666" transform="matrix(1.17406 0 0 1.17406 142.425 46.419)" width="1" height="1"/>
	<rect fill="#666" transform="matrix(1.17406 0 0 1.17406 142.425 46.419)" y="80" width="1" height="1"/>
	<rect fill="#666" transform="matrix(1.17406 0 0 1.17406 142.425 46.419)" y="160" width="1" height="1"/>
	<rect fill="#666" transform="matrix(1.17406 0 0 1.17406 142.425 46.419)" y="240" width="1" height="1"/>
	<rect fill="#666" transform="matrix(1.17406 0 0 1.17406 142.425 46.419)" y="320" width="1" height="1"/>
	<rect fill="#666" transform="matrix(1.17406 0 0 1.17406 142.425 46.419)" y="400" width="1" height="1"/>
	<rect fill="#666" transform="matrix(1.17406 0 0 1.17406 142.425 46.419)" y="480" width="1" height="1"/>
	<rect fill="#666" transform="matrix(1.17406 0 0 1.17406 142.425 46.419)" y="560" width="1" height="1"/>
	<rect fill="#666" transform="matrix(1.17406 0 0 1.17406 142.425 46.419)" y="640" width="1" height="1"/>
	<rect fill="#666" transform="matrix(1.17406 0 0 1.17406 142.425 46.419)" y="720" width="1" height="1"/>
	<rect fill="#666" transform="matrix(1.17406 0 0 1.17406 142.425 46.419)" x="80" width="1" height="1"/>
	<rect fill="#666" transform="matrix(1.17406 0 0 1.17406 142.425 46.419)" x="80" y="80" width="1" height="1"/>
	<rect fill="#666" transform="matrix(1.17406 0 0 1.17406 142.425 46.419)" x="80" y="160" width="1" height="1"/>
	<rect fill="#666" transform="matrix(1.17406 0 0 1.17406 142.425 46.419)" x="80" y="240" width="1" height="1"/>
	<rect fill="#666" transform="matrix(1.17406 0 0 1.17406 142.425 46.419)" x="80" y="320" width="1" height="1"/>
	<rect fill="#666" transform="matrix(1.17406 0 0 1.17406 142.425 46.419)" x="80" y="400" width="1" height="1"/>
	<rect fill="#666" transform="matrix(1.17406 0 0 1.17406 142.425 46.419)" x="80" y="480" width="1" height="1"/>
	<rect fill="#666" transform="matrix(1.17406 0 0 1.17406 142.425 46.419)" x="80" y="560" width="1" height="1"/>
	<rect fill="#666" transform="matrix(1.17406 0 0 1.17406 142.425 46.419)" x="80" y="640" width="1" height="1"/>
	<rect fill="#666" transform="matrix(1.17406 0 0 1.17406 142.425 46.419)" x="80" y="720" width="1" height="1"/>
	<rect fill="#666" transform="matrix(1.17406 0 0 1.17406 142.425 46.419)" x="160" width="1" height="1"/>
	<rect fill="#666" transform="matrix(1.17406 0 0 1.17406 142.425 46.419)" x="160" y="80" width="1" height="1"/>
	<rect fill="#666" transform="matrix(1.17406 0 0 1.17406 142.425 46.419)" x="160" y="160" width="1" height="1"/>
	<rect fill="#666" transform="matrix(1.17406 0 0 1.17406 142.425 46.419)" x="160" y="240" width="1" height="1"/>
	<rect fill="#666" transform="matrix(1.17406 0 0 1.17406 142.425 46.419)" x="160" y="320" width="1" height="1"/>
	<rect fill="#666" transform="matrix(1.17406 0 0 1.17406 142.425 46.419)" x="160" y="400" width="1" height="1"/>
	<rect fill="#666" transform="matrix(1.17406 0 0 1.17406 142.425 46.419)" x="160" y="480" width="1" height="1"/>
	<rect fill="#666" transform="matrix(1.17406 0 0 1.17406 142.425 46.419)" x="160" y="560" width="1" height="1"/>
	<rect fill="#666" transform="matrix(1.17406 0 0 1.17406 142.425 46.419)" x="160" y="640" width="1" height="1"/>
	<rect fill="#666" transform="matrix(1.17406 0 0 1.17406 142.425 46.419)" x="160" y="720" width="1" height="1"/>
	<rect fill="#666" transform="matrix(1.17406 0 0 1.17406 142.425 46.419)" x="240" width="1" height="1"/>
	<rect fill="#666" transform="matrix(1.17406 0 0 1.17406 142.425 46.419)" x="240" y="80" width="1" height="1"/>
	<rect fill="#666" transform="matrix(1.17406 0 0 1.17406 142.425 46.419)" x="240" y="160" width="1" height="1"/>
	<rect fill="#666" transform="matrix(1.17406 0 0 1.17406 142.425 46.419)" x="240" y="240" width="1" height="1"/>
	<rect fill="#666" transform="matrix(1.17406 0 0 1.17406 142.425 46.419)" x="240" y="320" width="1" height="1"/>
	<rect fill="#666" transform="matrix(1.17406 0 0 1.17406 142.425 46.419)" x="240" y="400" width="1" height="1"/>
	<rect fill="#666" transform="matrix(1.17406 0 0 1.17406 142.425 46.419)" x="240" y="480" width="1" height="1"/>
	<rect fill="#666" transform="matrix(1.17406 0 0 1.17406 142.425 46.419)" x="240" y="560" width="1" height="1"/>
	<rect fill="#666" transform="matrix(1.17406 0 0 1.17406 142.425 46.419)" x="240" y="640" width="1" height="1"/>
	<rect fill="#666" transform="matrix(1.17406 0 0 1.17406 142.425 46.419)" x="240" y="720" width="1" height="1"/>
	<rect fill="#666" transform="matrix(1.17406 0 0 1.17406 142.425 46.419)" x="320" width="1" height="1"/>
	<rect fill="#666" transform="matrix(1.17406 0 0 1.17406 142.425 46.419)" x="320" y="80" width="1" height="1"/>
	<rect fill="#666" transform="matrix(1.17406 0 0 1.17406 142.425 46.419)" x="320" y="160" width="1" height="1"/>
	<rect fill="#666" transform="matrix(1.17406 0 0 1.17406 142.425 46.419)" x="320" y="240" width="1" height="1"/>
	<rect fill="#666" transform="matrix(1.17406 0 0 1.17406 142.425 46.419)" x="320" y="320" width="1" height="1"/>
	<rect fill="#666" transform="matrix(1.17406 0 0 1.17406 142.425 46.419)" x="320" y="400" width="1" height="1"/>
	<rect fill="#666" transform="matrix(1.17406 0 0 1.17406 142.425 46.419)" x="320" y="480" width="1" height="1"/>
	<rect fill="#666" transform="matrix(1.17406 0 0 1.17406 142.425 46.419)" x="320" y="560" width="1" height="1"/>
	<rect fill="#666" transform="matrix(1.17406 0 0 1.17406 142.425 46.419)" x="320" y="640" width="1" height="1"/>
	<rect fill="#666" transform="matrix(1.17406 0 0 1.17406 142.425 46.419)" x="320" y="720" width="1" height="1"/>
	<rect fill="#666" transform="matrix(1.17406 0 0 1.17406 142.425 46.419)" x="400" width="1" height="1"/>
	<rect fill="#666" transform="matrix(1.17406 0 0 1.17406 142.425 46.419)" x="400" y="80" width="1" height="1"/>
	<rect fill="#666" transform="matrix(1.17406 0 0 1.17406 142.425 46.419)" x="400" y="160" width="1" height="1"/>
	<rect fill="#666" transform="matrix(1.17406 0 0 1.17406 142.425 46.419)" x="400" y="240" width="1" height="1"/>
	<rect fill="#666" transform="matrix(1.17406 0 0 1.17406 142.425 46.419)" x="400" y="320" width="1" height="1"/>
	<rect fill="#666" transform="matrix(1.17406 0 0 1.17406 142.425 46.419)" x="400" y="400" width="1" height="1"/>
	<rect fill="#666" transform="matrix(1.17406 0 0 1.17406 142.425 46.419)" x="400" y="480" width="1" height="1"/>
	<rect fill="#666" transform="matrix(1.17406 0 0 1.17406 142.425 46.419)" x="400" y="560" width="1" height="1"/>
	<rect fill="#666" transform="matrix(1.17406 0 0 1.17406 142.425 46.419)" x="400" y="640" width="1" height="1"/>
	<rect fill="#666" transform="matrix(1.17406 0 0 1.17406 142.425 46.419)" x="400" y="720" width="1" height="1"/>
	<rect fill="#666" transform="matrix(1.17406 0 0 1.17406 142.425 46.419)" x="480" width="1" height="1"/>
	<rect fill="#666" transform="matrix(1.17406 0 0 1.17406 142.425 46.419)" x="480" y="80" width="1" height="1"/>
	<rect fill="#666" transform="matrix(1.17406 0 0 1.17406 142.425 46.419)" x="480" y="160" width="1" height="1"/>
	<rect fill="#666" transform="matrix(1.17406 0 0 1.17406 142.425 46.419)" x="480" y="240" width="1" height="1"/>
	<rect fill="#666" transform="matrix(1.17406 0 0 1.17406 142.425 46.419)" x="480" y="320" width="1" height="1"/>
	<rect fill="#666" transform="matrix(1.17406 0 0 1.17406 142.425 46.419)" x="480" y="400" width="1" height="1"/>
	<rect fill="#666" transform="matrix(1.17406 0 0 1.17406 142.425 46.419)" x="480" y="480" width="1" height="1"/>
	<rect fill="#666" transform="matrix(1.17406 0 0 1.17406 142.425 46.419)" x="480" y="560" width="1" height="1"/>
	<rect fill="#666" transform="matrix(1.17406 0 0 1.17406 142.425 46.419)" x="480" y="640" width="1" height="1"/>
	<rect fill="#666" transform="matrix(1.17406 0 0 1.17406 142.425 46.419)" x="480" y="720" width="1" height="1"/>
	<rect fill="#666" transform="matrix(1.17406 0 0 1.17406 142.425 46.419)" x="560" width="1" height="1"/>
	<rect fill="#666" transform="matrix(1.17406 0 0 1.17406 142.425 46.419)" x="560" y="80" width="1" height="1"/>
	<rect fill="#666" transform="matrix(1.17406 0 0 1.17406 142.425 46.419)" x="560" y="160" width="1" height="1"/>
	<rect fill="#666" transform="matrix(1.17406 0 0 1.17406 142.425 46.419)" x="560" y="240" width="1" height="1"/>
	<rect fill="#666" transform="matrix(1.17406 0 0 1.17406 142.425 46.419)" x="560" y="320" width="1" height="1"/>
	<rect fill="#666" transform="matrix(1.17406 0 0 1.17406 142.425 46.419)" x="560" y="400" width="1" height="1"/>
	<rect fill="#666" transform="matrix(1.17406 0 0 1.17406 142.425 46.419)" x="560" y="480" width="1" height="1"/>
	<rect fill="#666" transform="matrix(1.17406 0 0 1.17406 142.425 46.419)" x="560" y="560" width="1" height="1"/>
	<rect fill="#666" transform="matrix(1.17406 0 0 1.17406 142.425 46.419)" x="560" y="640" width="1" height="1"/>
	<rect fill="#666" transform="matrix(1.17406 0 0 1.17406 142.425 46.419)" x="560" y="720" width="1" height="1"/>
	<rect fill="#666" transform="matrix(1.17406 0 0 1.17406 142.425 46.419)" x="640" width="1" height="1"/>
	<rect fill="#666" transform="matrix(1.17406 0 0 1.17406 142.425 46.419)" x="640" y="80" width="1" height="1"/>
	<rect fill="#666" transform="matrix(1.17406 0 0 1.17406 142.425 46.419)" x="640" y="160" width="1" height="1"/>
	<rect fill="#666" transform="matrix(1.17406 0 0 1.17406 142.425 46.419)" x="640" y="240" width="1" height="1"/>
	<rect fill="#666" transform="matrix(1.17406 0 0 1.17406 142.425 46.419)" x="640" y="320" width="1" height="1"/>
	<rect fill="#666" transform="matrix(1.17406 0 0 1.17406 142.425 46.419)" x="640" y="400" width="1" height="1"/>
	<rect fill="#666" transform="matrix(1.17406 0 0 1.17406 142.425 46.419)" x="640" y="480" width="1" height="1"/>
	<rect fill="#666" transform="matrix(1.17406 0 0 1.17406 142.425 46.419)" x="640" y="560" width="1" height="1"/>
	<rect fill="#666" transform="matrix(1.17406 0 0 1.17406 142.425 46.419)" x="640" y="640" width="1" height="1"/>
	<rect fill="#666" transform="matrix(1.17406 0 0 1.17406 142.425 46.419)" x="640" y="720" width="1" height="1"/>
	<rect fill="#666" transform="matrix(1.17406 0 0 1.17406 142.425 46.419)" x="720" width="1" height="1"/>
	<rect fill="#666" transform="matrix(1.17406 0 0 1.17406 142.425 46.419)" x="720" y="80" width="1" height="1"/>
	<rect fill="#666" transform="matrix(1.17406 0 0 1.17406 142.425 46.419)" x="720" y="160" width="1" height="1"/>
	<rect fill="#666" transform="matrix(1.17406 0 0 1.17406 142.425 46.419)" x="720" y="240" width="1" height="1"/>
	<rect fill="#666" transform="matrix(1.17406 0 0 1.17406 142.425 46.419)" x="720" y="320" width="1" height="1"/>
	<rect fill="#666" transform="matrix(1.17406 0 0 1.17406 142.425 46.419)" x="720" y="400" width="1" height="1"/>
	<rect fill="#666" transform="matrix(1.17406 0 0 1.17406 142.425 46.419)" x="720" y="480" width="1" height="1"/>
	<rect fill="#666" transform="matrix(1.17406 0 0 1.17406 142.425 46.419)" x="720" y="560" width="1" height="1"/>
	<rect fill="#666" transform="matrix(1.17406 0 0 1.17406 142.425 46.419)" x="720" y="640" width="1" height="1"/>
	<rect fill="#666" transform="matrix(1.17406 0 0 1.17406 142.425 46.419)" x="720" y="720" width="1" height="1"/>
	<rect fill="#666" transform="matrix(1.17406 0 0 1.17406 142.425 46.419)" width="2000" height="1"/>
	<rect fill="#666" transform="matrix(1.17406 0 0 1.17406 142.425 46.419)" width="1" height="2000"/>
	<rect fill="#333" transform="matrix(1.17406 0 0 1.17406 143.599 47.5931)" x="276" y="491" width="79" height="19"/>
	<text fill="#DCDCDC" transform="matrix(1.17406 0 0 1.17406 467.64 624.057)" font-size="9.333334" font-family="Lucida Sans Unicode" x="8, 13.901693, 19.634766, 26.885418, 32.759766, 37.517578, 42.717449, 46.536461, 51.367191, 56.521488, 62.395836, 65.09375, " y="11.973228, ">
			ToObservable
	</text>
	<rect fill="#4A4A4A" transform="matrix(1.17406 0 0 1.17406 467.64 624.057)" y="16" width="79" height="3"/>
	<rect fill="#828282" transform="matrix(1.17406 0 0 1.17406 467.64 642.842)" width="5" height="3"/>
	<rect fill="#4A4A4A" transform="matrix(1.17406 0 0 1.17406 467.64 624.057)" width="79" height="3"/>
	<rect fill="#828282" transform="matrix(1.17406 0 0 1.17406 467.64 624.057)" x="74" width="5" height="3"/>
	<rect fill="#828282" transform="matrix(1.17406 0 0 1.17406 467.64 624.057)" width="5" height="3"/>
	<rect fill="#828282" transform="matrix(1.17406 0 0 1.17406 143.599 47.5931)" x="222" y="475" width="9" height="9"/>
	<clipPath id="cl_e">
		<rect x="420.67752" y="601.75012" width="32.873718" height="17.610901"/>
	</clipPath>
	<g clip-path="url(#cl_e)">
		<text fill="#DCDCDC" transform="matrix(1.17406 0 0 1.17406 417.155 601.75)" font-size="9.333334" font-family="Lucida Sans Unicode" x="3, 8.9016933, 14.101563, 18.859377, 24.651695, 27.349611, " y="9.9732285, ">
				Result
		</text>
	</g>
	<rect fill="#333" transform="matrix(1.17406 0 0 1.17406 143.599 47.5931)" x="276" y="530" width="65" height="19"/>
	<text fill="#DCDCDC" transform="matrix(1.17406 0 0 1.17406 467.64 669.846)" font-size="9.333334" font-family="Lucida Sans Unicode" x="8, 14.858725, 20.591797, 23.289715, 29.164064, 34.140625, 39.294922, 42.785809, 47.98568, 52.743492, " y="11.973228, ">
			HoldLatest
	</text>
	<rect fill="#4A4A4A" transform="matrix(1.17406 0 0 1.17406 467.64 669.846)" y="16" width="65" height="3"/>
	<rect fill="#828282" fill-opacity="0.29803923" transform="matrix(1.17406 0 0 1.17406 467.64 688.631)" x="60" width="5" height="3"/>
	<rect fill="#828282" fill-opacity="0.29803923" transform="matrix(1.17406 0 0 1.17406 467.64 688.631)" width="5" height="3"/>
	<rect fill="#4A4A4A" transform="matrix(1.17406 0 0 1.17406 467.64 669.846)" width="65" height="3"/>
	<rect fill="#828282" transform="matrix(1.17406 0 0 1.17406 467.64 669.846)" x="60" width="5" height="3"/>
	<rect fill="#828282" transform="matrix(1.17406 0 0 1.17406 467.64 669.846)" width="5" height="3"/>
	<rect fill="#333" transform="matrix(1.17406 0 0 1.17406 143.599 47.5931)" x="427" y="270" width="43" height="19"/>
	<text fill="#DCDCDC" transform="matrix(1.17406 0 0 1.17406 644.923 364.59)" font-size="9.333334" font-family="Lucida Sans Unicode" x="8, 14.990886, 20.190756, 28.904297, " y="11.973228, ">
			Demo
	</text>
	<rect fill="#4A4A4A" transform="matrix(1.17406 0 0 1.17406 644.923 364.59)" y="16" width="43" height="3"/>
	<rect fill="#4A4A4A" transform="matrix(1.17406 0 0 1.17406 644.923 364.59)" width="43" height="3"/>
	<rect fill="#828282" transform="matrix(1.17406 0 0 1.17406 644.923 364.59)" width="5" height="3"/>
	<ellipse fill="#7F7F7F" transform="matrix(1.17406 0 0 1.17406 143.599 47.5931)" cx="411.5" cy="199.5" rx="4.5" ry="4.5"/>
	<ellipse fill="white" transform="matrix(1.17406 0 0 1.17406 626.725 281.818)" cx="0" cy="0" rx="2" ry="2"/>
	<ellipse fill="none" stroke="black" stroke-width="0.5" stroke-miterlimit="4" transform="matrix(1.17406 0 0 1.17406 626.725 281.818)" cx="0" cy="0" rx="2" ry="2"/>
	<clipPath id="cl_f">
		<rect x="683.66724" y="273.01294" width="56.35498" height="17.610931"/>
	</clipPath>
	<g clip-path="url(#cl_f)">
		<text fill="#DCDCDC" transform="matrix(1.17406 0 0 1.17406 677.797 273.013)" font-size="9.333334" font-style="oblique" font-family="Lucida Sans Unicode" x="5, 11.457683, 17.190756, 22.983074, 28.857424, 31.55534, 35.046227, 37.744144, 43.477219, " y="9.9732285, ">
				Condition
		</text>
	</g>
	<rect fill="#333" transform="matrix(1.17406 0 0 1.17406 626.725 281.818)" x="6.5" y="-7" width="35" height="35"/>
	<ellipse transform="matrix(1.17406 0 0 1.17406 634.357 273.6)" cx="17.5" cy="17.5" rx="8.75" ry="8.75"/>
	<ellipse fill="none" stroke="#7F7F7F" stroke-width="1" stroke-miterlimit="4" transform="matrix(1.17406 0 0 1.17406 634.357 273.6)" cx="17.5" cy="17.5" rx="9.25" ry="9.25"/>
	<rect fill="#333" x="10" y="10" width="22" height="22"/>
	<clipPath id="cl_10">
		<rect x="10" y="10" width="22" height="22"/>
	</clipPath>
	<g clip-path="url(#cl_10)">
		<text fill="#DCDCDC" transform="translate(10 10)" font-size="9.333334" font-family="Lucida Sans Unicode" x="8.4205723, " y="13.473228, ">
				P
		</text>
	</g>
	<rect fill="#333" x="36" y="10" width="140" height="22"/>
	<clipPath id="cl_11">
		<rect x="40" y="10" width="35" height="22"/>
	</clipPath>
	<g clip-path="url(#cl_11)">
		<text fill="#DCDCDC" transform="translate(36 10)" font-size="12" font-family="Lucida Sans Unicode" x="4, 13.322266, 20.769531, 27.455078, 32.365234, " y="14.181641, ">
				Query
		</text>
	</g>
	<clipPath id="cl_12">
		<rect x="79" y="10" width="4" height="22"/>
	</clipPath>
	<g clip-path="url(#cl_12)">
		<text fill="#DCDCDC" transform="translate(79 10)" font-size="12" font-family="Lucida Sans Unicode" x="0, " y="14.181641, ">
				[
		</text>
	</g>
	<clipPath id="cl_13">
		<rect x="83" y="10" width="85" height="22"/>
	</clipPath>
	<g clip-path="url(#cl_13)">
		<text fill="#DCDCDC" fill-opacity="0.49803922" transform="translate(83 10)" font-size="12" font-family="Lucida Sans Unicode" x="0, 7.8457031, 14.244141, 18.041016, 21.498047, 30.820313, 34.617188, 38.074219, 45.521484, 49.933594, 53.402344, 60.849609, 68.208984, 77.197266, " y="14.181641, ">
				VL.IO.InfluxDB
		</text>
	</g>
	<clipPath id="cl_14">
		<rect x="168" y="10" width="4" height="22"/>
	</clipPath>
	<g clip-path="url(#cl_14)">
		<text fill="#DCDCDC" transform="translate(168 10)" font-size="12" font-family="Lucida Sans Unicode" x="0, " y="14.181641, ">
				]
		</text>
	</g>
</svg>
